<svg width="937" height="498" viewBox="0 0 937 498" fill="none" xmlns="http://www.w3.org/2000/svg">
<rect x="10" y="10" width="917" height="478" fill="black" stroke="#E50202" stroke-width="20"/>
<path d="M107.609 103.5H111.109V86H114.609V82.5H121.609V103.5H125.109V110.5H121.609V107H111.109V110.5H107.609V103.5ZM118.109 86H114.609V103.5H118.109V86ZM132.096 89.5H139.096V93H142.596V107H132.096V103.5H128.596V100H132.096V96.5H139.096V93H132.096V89.5ZM132.096 103.5H139.096V100H132.096V103.5ZM146.096 89.5H149.596V96.5H156.596V89.5H160.096V107H156.596V100H149.596V107H146.096V89.5ZM163.596 89.5H167.096V96.5H174.096V89.5H177.596V107H174.096V100H167.096V107H163.596V89.5ZM181.096 89.5H184.596V96.5H191.596V100H195.096V103.5H191.596V107H181.096V89.5ZM198.596 89.5H202.096V107H198.596V89.5ZM184.596 103.5H191.596V100H184.596V103.5ZM205.568 89.5H209.068V100H212.568V96.5H216.068V89.5H219.568V107H216.068V100H212.568V103.5H209.068V107H205.568V89.5ZM209.068 82.5H216.068V86H209.068V82.5ZM244.055 89.5H247.555V96.5H251.055V93H254.555V89.5H258.055V93H254.555V96.5H251.055V100H254.555V103.5H258.055V107H254.555V103.5H251.055V100H247.555V107H244.055V89.5ZM261.555 93H265.055V89.5H272.055V93H275.555V103.5H272.055V107H265.055V103.5H261.555V93ZM265.055 103.5H272.055V93H265.055V103.5ZM279.055 89.5H282.555V96.5H289.555V89.5H293.055V107H289.555V100H282.555V107H279.055V89.5ZM296.555 89.5H314.055V93H307.055V107H303.555V93H296.555V89.5ZM317.541 93H321.041V89.5H328.041V93H331.541V100H321.041V103.5H331.541V107H321.041V103.5H317.541V93ZM321.041 96.5H328.041V93H321.041V96.5ZM335.041 89.5H338.541V96.5H345.541V89.5H349.041V107H345.541V100H338.541V107H335.041V89.5ZM352.541 89.5H370.041V93H363.041V107H359.541V93H352.541V89.5ZM394.514 89.5H398.014V93H401.514V96.5H405.014V93H408.514V89.5H412.014V107H408.514V96.5H405.014V100H401.514V96.5H398.014V107H394.514V89.5ZM415.5 93H419V89.5H426V93H429.5V103.5H426V107H419V103.5H415.5V93ZM419 103.5H426V93H419V103.5ZM433 89.5H436.5V96.5H440V89.5H443.5V96.5H447V89.5H450.5V96.5H447V100H450.5V107H447V100H443.5V107H440V100H436.5V107H433V100H436.5V96.5H433V89.5ZM453.986 93H457.486V89.5H464.486V93H467.986V100H457.486V103.5H467.986V107H457.486V103.5H453.986V93ZM457.486 96.5H464.486V93H457.486V96.5ZM471.486 89.5H488.986V93H481.986V107H478.486V93H471.486V89.5ZM513.459 93H516.959V89.5H527.459V93H516.959V103.5H527.459V107H516.959V103.5H513.459V93ZM530.959 93H534.459V89.5H541.459V93H544.959V103.5H541.459V107H534.459V103.5H530.959V93ZM534.459 103.5H541.459V93H534.459V103.5ZM548.459 103.5H551.959V93H555.459V89.5H562.459V103.5H565.959V110.5H562.459V107H551.959V110.5H548.459V103.5ZM558.959 93H555.459V103.5H558.959V93ZM569.445 93H572.945V89.5H579.945V93H583.445V100H572.945V103.5H583.445V107H572.945V103.5H569.445V93ZM572.945 96.5H579.945V93H572.945V96.5ZM586.945 89.5H597.445V93H600.945V103.5H597.445V107H590.445V114H586.945V89.5ZM597.445 93H590.445V103.5H597.445V93ZM604.445 89.5H607.945V96.5H611.445V89.5H614.945V96.5H618.445V89.5H621.945V96.5H618.445V100H621.945V107H618.445V100H614.945V107H611.445V100H607.945V107H604.445V100H607.945V96.5H604.445V89.5ZM628.932 89.5H635.932V93H639.432V107H628.932V103.5H625.432V100H628.932V96.5H635.932V93H628.932V89.5ZM628.932 103.5H635.932V100H628.932V103.5ZM642.932 89.5H660.432V93H653.432V107H649.932V93H642.932V89.5ZM663.918 89.5H667.418V96.5H674.418V100H677.918V103.5H674.418V107H663.918V89.5ZM667.418 103.5H674.418V100H667.418V103.5ZM702.404 89.5H716.404V93H705.904V107H702.404V89.5ZM719.904 89.5H730.404V93H733.904V103.5H730.404V107H723.404V114H719.904V89.5ZM730.404 93H723.404V103.5H730.404V93ZM737.404 93H740.904V89.5H747.904V93H751.404V103.5H747.904V107H740.904V103.5H737.404V93ZM740.904 103.5H747.904V93H740.904V103.5ZM754.904 89.5H758.404V93H761.904V96.5H765.404V93H768.904V89.5H772.404V107H768.904V96.5H765.404V100H761.904V96.5H758.404V107H754.904V89.5ZM775.891 89.5H779.391V96.5H782.891V93H786.391V89.5H789.891V93H786.391V96.5H782.891V100H786.391V103.5H789.891V107H786.391V103.5H782.891V100H779.391V107H775.891V89.5ZM793.391 89.5H796.891V100H800.391V96.5H803.891V89.5H807.391V107H803.891V100H800.391V103.5H796.891V107H793.391V89.5ZM810.891 93H814.391V89.5H821.391V93H824.891V100H814.391V103.5H824.891V107H814.391V103.5H810.891V93ZM814.391 96.5H821.391V93H814.391V96.5ZM177.555 160.5H184.555V157H174.055V153.5H184.555V157H188.055V160.5H184.555V164H188.055V167.5H184.555V171H174.055V167.5H184.555V164H177.555V160.5ZM191.555 153.5H202.055V157H205.555V160.5H202.055V164H205.555V167.5H202.055V171H191.555V153.5ZM195.055 157V160.5H202.055V157.07L195.055 157ZM195.055 167.5H202.055V164H195.055V167.5ZM209.055 153.5H212.555V167.5H219.555V153.5H223.055V174.5H219.555V178H212.555V174.5H219.555V171H212.555V167.5H209.055V153.5ZM226.555 153.5H230.055V160.5H233.555V157H237.055V153.5H240.555V157H237.055V160.5H233.555V164H237.055V167.5H240.555V171H237.055V167.5H233.555V164H230.055V171H226.555V153.5ZM244.055 153.5H247.555V164H251.055V160.5H254.555V153.5H258.055V171H254.555V164H251.055V167.5H247.555V171H244.055V153.5ZM261.555 164H268.555V174.5H265.055V178H261.555V174.5H265.055V167.5H261.555V164ZM293.068 153.5H303.568V157H307.068V167.5H303.568V171H296.568V178H293.068V153.5ZM303.568 157H296.568V167.5H303.568V157ZM310.568 157H314.068V153.5H321.068V157H324.568V164H314.068V167.5H324.568V171H314.068V167.5H310.568V157ZM314.068 160.5H321.068V157H314.068V160.5ZM331.568 160.5H338.568V157H328.068V153.5H338.568V157H342.068V160.5H338.568V164H342.068V167.5H338.568V171H328.068V167.5H338.568V164H331.568V160.5ZM345.568 153.5H349.068V160.5H352.568V157H356.068V153.5H359.568V157H356.068V160.5H352.568V164H356.068V167.5H359.568V171H356.068V167.5H352.568V164H349.068V171H345.568V153.5ZM363.068 153.5H366.568V164H370.068V160.5H373.568V153.5H377.068V171H373.568V164H370.068V167.5H366.568V171H363.068V153.5ZM380.568 157H384.068V153.5H391.068V157H394.568V164H384.068V167.5H394.568V171H384.068V167.5H380.568V157ZM384.068 160.5H391.068V157H384.068V160.5ZM419.055 153.5H429.555V157H433.055V160.5H429.555V164H433.055V167.5H429.555V171H419.055V153.5ZM422.555 157V160.5H429.555V157.07L422.555 157ZM422.555 167.5H429.555V164H422.555V167.5ZM436.555 153.5H440.055V164H443.555V160.5H447.055V153.5H450.555V171H447.055V164H443.555V167.5H440.055V171H436.555V153.5ZM457.555 160.5H464.555V157H454.055V153.5H464.555V157H468.055V160.5H464.555V164H468.055V167.5H464.555V171H454.055V167.5H464.555V164H457.555V160.5ZM471.555 153.5H475.055V167.5H482.055V153.5H485.555V174.5H482.055V178H475.055V174.5H482.055V171H475.055V167.5H471.555V153.5ZM492.555 153.5H499.555V157H503.055V171H492.555V167.5H489.055V164H492.555V160.5H499.555V157H492.555V153.5ZM492.555 167.5H499.555V164H492.555V167.5ZM506.555 160.5H510.055V157H513.555V153.5H520.555V171H517.055V157H513.555V160.5H510.055V171H506.555V160.5ZM524.055 153.5H527.555V160.5H534.555V164H538.055V167.5H534.555V171H524.055V153.5ZM527.555 167.5H534.555V164H527.555V167.5ZM541.555 153.5H545.055V160.5H552.055V153.5H555.555V171H552.055V164H545.055V171H541.555V153.5ZM559.055 153.5H562.555V160.5H569.555V164H573.055V167.5H569.555V171H559.055V153.5ZM576.555 153.5H580.055V171H576.555V153.5ZM562.555 167.5H569.555V164H562.555V167.5ZM583.527 157H587.027V153.5H594.027V157H597.527V164H587.027V167.5H597.527V171H587.027V167.5H583.527V157ZM587.027 160.5H594.027V157H587.027V160.5ZM625.514 160.5H632.514V157H622.014V153.5H632.514V157H636.014V167.5H632.514V171H622.014V167.5H632.514V164H625.514V160.5ZM639.514 157H643.014V153.5H646.514V150H650.014V153.5H653.514V157H657.014V167.5H653.514V171H650.014V174.5H646.514V171H643.014V167.5H639.514V157ZM653.514 157H650.014V167.5H653.514V157ZM643.014 167.5H646.514V157H643.014V167.5ZM660.5 157H664V153.5H667.5V150H671V153.5H674.5V157H678V167.5H674.5V171H671V174.5H667.5V171H664V167.5H660.5V157ZM674.5 157H671V167.5H674.5V157ZM664 167.5H667.5V157H664V167.5ZM681.486 157H684.986V153.5H691.986V157H695.486V164H684.986V167.5H695.486V171H684.986V167.5H681.486V157ZM684.986 160.5H691.986V157H684.986V160.5ZM698.986 153.5H702.486V160.5H705.986V157H709.486V153.5H712.986V157H709.486V160.5H705.986V164H709.486V167.5H712.986V171H709.486V167.5H705.986V164H702.486V171H698.986V153.5ZM716.486 153.5H733.986V157H726.986V171H723.486V157H716.486V153.5ZM737.473 153.5H740.973V160.5H747.973V164H751.473V167.5H747.973V171H737.473V153.5ZM754.973 153.5H758.473V171H754.973V153.5ZM740.973 167.5H747.973V164H740.973V167.5ZM258.068 217.5H261.568V228H265.068V224.5H268.568V217.5H272.068V235H268.568V228H265.068V231.5H261.568V235H258.068V217.5ZM296.555 217.5H300.055V221H303.555V224.5H307.055V221H310.555V217.5H314.055V235H310.555V224.5H307.055V228H303.555V224.5H300.055V235H296.555V217.5ZM317.541 217.5H321.041V228H324.541V224.5H328.041V217.5H331.541V235H328.041V228H324.541V231.5H321.041V235H317.541V217.5ZM335.041 217.5H349.041V221H338.541V235H335.041V217.5ZM356.041 217.5H363.041V221H366.541V235H356.041V231.5H352.541V228H356.041V224.5H363.041V221H356.041V217.5ZM356.041 231.5H363.041V228H356.041V231.5ZM370.041 217.5H373.541V224.5H377.041V221H380.541V217.5H387.541V221H391.041V231.5H387.541V235H380.541V231.5H377.041V228H373.541V235H370.041V217.5ZM380.541 221V231.5H387.541V221.07L380.541 221ZM394.514 217.5H398.014V231.5H401.514V217.5H405.014V231.5H408.514V217.5H412.014V231.5H415.514V238.5H412.014V235H394.514V217.5ZM418.986 217.5H422.486V228H425.986V224.5H429.486V217.5H432.986V235H429.486V228H425.986V231.5H422.486V235H418.986V217.5ZM436.486 221H439.986V217.5H446.986V221H450.486V228H439.986V231.5H450.486V235H439.986V231.5H436.486V221ZM439.986 224.5H446.986V221H439.986V224.5ZM474.973 217.5H478.473V228H481.973V224.5H485.473V217.5H488.973V235H485.473V228H481.973V231.5H478.473V235H474.973V217.5ZM495.973 224.5H502.973V221H492.473V217.5H502.973V221H506.473V224.5H502.973V228H506.473V231.5H502.973V235H492.473V231.5H502.973V228H495.973V224.5ZM509.973 221H513.473V217.5H520.473V221H523.973V231.5H520.473V235H513.473V231.5H509.973V221ZM513.473 231.5H520.473V221H513.473V231.5ZM527.473 214H530.973V210.5H537.973V207H541.473V210.5H537.973V214H530.973V217.5H537.973V221H541.473V231.5H537.973V235H530.973V231.5H527.473V214ZM530.973 231.5H537.973V221H530.973V231.5ZM544.973 217.5H555.473V221H558.973V231.5H555.473V235H548.473V242H544.973V217.5ZM555.473 221H548.473V231.5H555.473V221ZM565.973 217.5H572.973V221H576.473V235H565.973V231.5H562.473V228H565.973V224.5H572.973V221H565.973V217.5ZM565.973 231.5H572.973V228H565.973V231.5ZM579.973 217.5H583.473V224.5H586.973V217.5H590.473V224.5H593.973V217.5H597.473V224.5H593.973V228H597.473V235H593.973V228H590.473V235H586.973V228H583.473V235H579.973V228H583.473V224.5H579.973V217.5ZM600.959 221H604.459V217.5H611.459V221H614.959V228H604.459V231.5H614.959V235H604.459V231.5H600.959V221ZM604.459 224.5H611.459V221H604.459V224.5ZM618.459 217.5H621.959V224.5H628.959V217.5H632.459V235H628.959V228H621.959V235H618.459V217.5ZM635.959 217.5H639.459V228H642.959V224.5H646.459V217.5H649.959V235H646.459V228H642.959V231.5H639.459V235H635.959V217.5ZM653.459 221H656.959V217.5H667.459V235H663.959V228H660.459V231.5H656.959V235H653.459V231.5H656.959V224.5H653.459V221ZM656.959 221V224.5H663.959V221H656.959ZM670.959 231.5H674.459V235H670.959V231.5ZM109.353 274.5H112.853V285H123.353V274.5H126.853V299H123.353V288.5H112.853V299H109.353V274.5ZM130.339 285H133.839V281.5H140.839V285H144.339V292H133.839V295.5H144.339V299H133.839V295.5H130.339V285ZM133.839 288.5H140.839V285H133.839V288.5ZM168.825 281.5H179.325V285H182.825V295.5H179.325V299H172.325V306H168.825V281.5ZM179.325 285H172.325V295.5H179.325V285ZM186.325 285H189.825V281.5H196.825V285H200.325V292H189.825V295.5H200.325V299H189.825V295.5H186.325V285ZM189.825 288.5H196.825V285H189.825V288.5ZM203.825 281.5H207.325V288.5H210.825V285H214.325V281.5H217.825V285H214.325V288.5H210.825V292H214.325V295.5H217.825V299H214.325V295.5H210.825V292H207.325V299H203.825V281.5ZM221.325 285H224.825V281.5H231.825V285H235.325V295.5H231.825V299H224.825V295.5H221.325V285ZM224.825 295.5H231.825V285H224.825V295.5ZM238.825 281.5H242.325V285H245.825V288.5H249.325V285H252.825V281.5H256.325V299H252.825V288.5H249.325V292H245.825V288.5H242.325V299H238.825V281.5ZM259.812 285H263.312V281.5H270.312V285H273.812V292H263.312V295.5H273.812V299H263.312V295.5H259.812V285ZM263.312 288.5H270.312V285H263.312V288.5ZM277.312 281.5H280.812V288.5H287.812V281.5H291.312V299H287.812V292H280.812V299H277.312V281.5ZM294.812 295.5H298.312V285H301.812V281.5H308.812V295.5H312.312V302.5H308.812V299H298.312V302.5H294.812V295.5ZM305.312 285H301.812V295.5H305.312V285ZM315.798 281.5H319.298V295.5H326.298V281.5H329.798V302.5H326.298V306H319.298V302.5H326.298V299H319.298V295.5H315.798V281.5ZM333.298 285H336.798V281.5H343.798V285H347.298V292H336.798V295.5H347.298V299H336.798V295.5H333.298V285ZM336.798 288.5H343.798V285H336.798V288.5ZM350.798 281.5H368.298V285H361.298V299H357.798V285H350.798V281.5ZM371.784 285H375.284V281.5H385.784V285H375.284V295.5H385.784V299H375.284V295.5H371.784V285ZM389.284 285H392.784V281.5H403.284V299H399.784V292H396.284V295.5H392.784V299H389.284V295.5H392.784V288.5H389.284V285ZM392.784 285V288.5H399.784V285H392.784ZM427.771 295.5H431.271V285H434.771V281.5H441.771V295.5H445.271V302.5H441.771V299H431.271V302.5H427.771V295.5ZM438.271 285H434.771V295.5H438.271V285ZM448.757 288.5H452.257V285H455.757V281.5H462.757V299H459.257V285H455.757V288.5H452.257V299H448.757V288.5ZM466.257 285H469.757V281.5H480.257V299H476.757V292H473.257V295.5H469.757V299H466.257V295.5H469.757V288.5H466.257V285ZM469.757 285V288.5H476.757V285H469.757ZM504.743 288.5H508.243V285H511.743V281.5H518.743V299H515.243V285H511.743V288.5H508.243V299H504.743V288.5ZM522.243 281.5H525.743V288.5H529.243V285H532.743V281.5H539.743V285H543.243V295.5H539.743V299H532.743V295.5H529.243V292H525.743V299H522.243V281.5ZM532.743 285V295.5H539.743V285.07L532.743 285ZM546.716 295.5H550.216V285H553.716V281.5H560.716V295.5H564.216V302.5H560.716V299H550.216V302.5H546.716V295.5ZM557.216 285H553.716V295.5H557.216V285ZM567.702 285H571.202V281.5H578.202V285H581.702V292H571.202V295.5H581.702V299H571.202V295.5H567.702V285ZM571.202 288.5H578.202V285H571.202V288.5ZM585.202 281.5H588.702V292H592.202V288.5H595.702V281.5H599.202V299H595.702V292H592.202V295.5H588.702V299H585.202V281.5ZM588.702 274.5H595.702V278H588.702V274.5ZM623.688 285H627.188V281.5H637.688V285H627.188V295.5H637.688V299H627.188V295.5H623.688V285ZM662.175 281.5H676.175V299H672.675V285H665.675V299H662.175V281.5ZM679.675 285H683.175V281.5H690.175V285H693.675V295.5H690.175V299H683.175V295.5H679.675V285ZM683.175 295.5H690.175V285H683.175V295.5ZM697.175 281.5H707.675V285H711.175V288.5H707.675V292H711.175V295.5H707.675V299H697.175V281.5ZM700.675 285V288.5H707.675V285.07L700.675 285ZM700.675 295.5H707.675V292H700.675V295.5ZM714.675 281.5H718.175V288.5H725.175V292H728.675V295.5H725.175V299H714.675V281.5ZM732.175 281.5H735.675V299H732.175V281.5ZM718.175 295.5H725.175V292H718.175V295.5ZM739.147 281.5H742.647V295.5H746.147V281.5H749.647V295.5H753.147V281.5H756.647V299H739.147V281.5ZM760.134 285H763.634V281.5H770.634V285H774.134V292H763.634V295.5H774.134V299H763.634V295.5H760.134V285ZM763.634 288.5H770.634V285H763.634V288.5ZM777.634 281.5H781.134V288.5H788.134V281.5H791.634V299H788.134V292H781.134V299H777.634V281.5ZM795.134 281.5H798.634V288.5H805.634V281.5H809.134V299H805.634V292H798.634V299H795.134V281.5ZM812.634 285H816.134V281.5H823.134V285H826.634V295.5H823.134V299H816.134V295.5H812.634V285ZM816.134 295.5H823.134V285H816.134V295.5ZM830.134 281.5H833.634V292H837.134V288.5H840.634V281.5H844.134V299H840.634V292H837.134V295.5H833.634V299H830.134V281.5ZM833.634 274.5H840.634V278H833.634V274.5ZM170.534 345.5H174.034V352.5H181.034V345.5H184.534V363H181.034V356H174.034V352.5H170.534V345.5ZM188.034 345.5H191.534V359.5H198.534V345.5H202.034V366.5H198.534V370H191.534V366.5H198.534V363H191.534V359.5H188.034V345.5ZM205.534 345.5H216.034V349H219.534V352.5H216.034V356H219.534V359.5H216.034V363H205.534V345.5ZM209.034 349V352.5H216.034V349.07L209.034 349ZM209.034 359.5H216.034V356H209.034V359.5ZM223.034 349H226.534V345.5H237.034V349H226.534V359.5H237.034V363H226.534V359.5H223.034V349ZM240.534 345.5H258.034V349H251.034V363H247.534V349H240.534V345.5ZM261.521 345.5H272.021V349H275.521V352.5H272.021V356H275.521V359.5H272.021V363H261.521V345.5ZM265.021 349V352.5H272.021V349.07L265.021 349ZM265.021 359.5H272.021V356H265.021V359.5ZM279.021 345.5H282.521V356H286.021V352.5H289.521V345.5H293.021V363H289.521V356H286.021V359.5H282.521V363H279.021V345.5ZM296.521 345.5H314.021V349H307.021V363H303.521V349H296.521V345.5ZM317.507 349H321.007V345.5H328.007V349H331.507V356H321.007V359.5H331.507V363H321.007V359.5H317.507V349ZM321.007 352.5H328.007V349H321.007V352.5ZM335.007 352.5H338.507V349H342.007V345.5H349.007V363H345.507V349H342.007V352.5H338.507V363H335.007V352.5ZM352.507 345.5H356.007V352.5H363.007V356H366.507V359.5H363.007V363H352.507V345.5ZM356.007 359.5H363.007V356H356.007V359.5ZM370.007 345.5H373.507V352.5H380.507V345.5H384.007V363H380.507V356H373.507V363H370.007V345.5ZM387.507 349H391.007V345.5H398.007V349H401.507V359.5H398.007V363H391.007V359.5H387.507V349ZM391.007 359.5H398.007V349H391.007V359.5ZM405.007 349H408.507V345.5H419.007V349H408.507V359.5H419.007V363H408.507V359.5H405.007V349ZM422.507 345.5H440.007V349H433.007V363H429.507V349H422.507V345.5ZM443.493 345.5H446.993V352.5H453.993V356H457.493V359.5H453.993V363H443.493V345.5ZM446.993 359.5H453.993V356H446.993V359.5ZM460.993 345.5H464.493V352.5H467.993V349H471.493V345.5H478.493V349H481.993V359.5H478.493V363H471.493V359.5H467.993V356H464.493V363H460.993V345.5ZM471.493 349V359.5H478.493V349.07L471.493 349ZM485.466 356H492.466V366.5H488.966V370H485.466V366.5H488.966V359.5H485.466V356ZM520.479 352.5H527.479V349H516.979V345.5H527.479V349H530.979V359.5H527.479V363H516.979V359.5H527.479V356H520.479V352.5ZM534.479 345.5H548.479V363H544.979V349H537.979V363H534.479V345.5ZM551.979 345.5H555.479V356H558.979V352.5H562.479V345.5H565.979V363H562.479V356H558.979V359.5H555.479V363H551.979V345.5ZM569.479 352.5H572.979V349H576.479V345.5H583.479V363H579.979V349H576.479V352.5H572.979V363H569.479V352.5ZM586.979 349H590.479V345.5H597.479V349H600.979V356H590.479V359.5H600.979V363H590.479V359.5H586.979V349ZM590.479 352.5H597.479V349H590.479V352.5ZM604.479 345.5H618.479V363H614.979V349H607.979V363H604.479V345.5ZM621.979 349H625.479V345.5H635.979V349H625.479V359.5H635.979V363H625.479V359.5H621.979V349ZM639.479 345.5H642.979V356H646.479V352.5H649.979V345.5H653.479V363H649.979V356H646.479V359.5H642.979V363H639.479V345.5ZM656.979 349H660.479V345.5H667.479V349H670.979V356H660.479V359.5H670.979V363H660.479V359.5H656.979V349ZM660.479 352.5H667.479V349H660.479V352.5ZM674.479 345.5H677.979V356H681.479V352.5H684.979V345.5H688.479V363H684.979V356H681.479V359.5H677.979V363H674.479V345.5ZM677.979 338.5H684.979V342H677.979V338.5ZM712.966 345.5H716.466V356H719.966V352.5H723.466V345.5H726.966V363H723.466V356H719.966V359.5H716.466V363H712.966V345.5ZM730.466 352.5H733.966V349H737.466V345.5H744.466V363H740.966V349H737.466V352.5H733.966V363H730.466V352.5ZM747.966 345.5H751.466V356H754.966V352.5H758.466V345.5H761.966V363H758.466V356H754.966V359.5H751.466V363H747.966V345.5ZM230.075 409.5H247.575V413H240.575V427H237.075V413H230.075V409.5ZM251.062 409.5H261.562V413H265.062V423.5H261.562V427H254.562V434H251.062V409.5ZM261.562 413H254.562V423.5H261.562V413ZM268.562 413H272.062V409.5H279.062V413H282.562V420H272.062V423.5H282.562V427H272.062V423.5H268.562V413ZM272.062 416.5H279.062V413H272.062V416.5ZM286.062 409.5H296.562V413H300.062V416.5H296.562V420H300.062V423.5H296.562V427H286.062V409.5ZM289.562 413V416.5H296.562V413.07L289.562 413ZM289.562 423.5H296.562V420H289.562V423.5ZM303.562 413H307.062V409.5H314.062V413H317.562V423.5H314.062V427H307.062V423.5H303.562V413ZM307.062 423.5H314.062V413H307.062V423.5ZM321.062 409.5H324.562V416.5H328.062V409.5H331.562V416.5H335.062V409.5H338.562V416.5H335.062V420H338.562V427H335.062V420H331.562V427H328.062V420H324.562V427H321.062V420H324.562V416.5H321.062V409.5ZM342.048 409.5H345.548V416.5H352.548V409.5H356.048V427H352.548V420H345.548V427H342.048V409.5ZM359.548 409.5H363.048V416.5H370.048V420H373.548V423.5H370.048V427H359.548V409.5ZM377.048 409.5H380.548V427H377.048V409.5ZM363.048 423.5H370.048V420H363.048V423.5ZM384.021 409.5H387.521V413H391.021V416.5H394.521V413H398.021V409.5H401.521V427H398.021V416.5H394.521V420H391.021V416.5H387.521V427H384.021V409.5ZM405.007 409.5H408.507V420H412.007V416.5H415.507V409.5H419.007V427H415.507V420H412.007V423.5H408.507V427H405.007V409.5ZM443.493 409.5H453.993V413H457.493V423.5H453.993V427H446.993V434H443.493V409.5ZM453.993 413H446.993V423.5H453.993V413ZM464.493 409.5H471.493V413H474.993V427H464.493V423.5H460.993V420H464.493V416.5H471.493V413H464.493V409.5ZM464.493 423.5H471.493V420H464.493V423.5ZM478.493 413H481.993V409.5H492.493V413H481.993V423.5H492.493V427H481.993V423.5H478.493V413ZM495.993 413H499.493V409.5H509.993V413H499.493V423.5H509.993V427H499.493V423.5H495.993V413ZM513.493 409.5H530.993V413H523.993V427H520.493V413H513.493V409.5ZM534.479 409.5H544.979V413H548.479V423.5H544.979V427H537.979V434H534.479V409.5ZM544.979 413H537.979V423.5H544.979V413ZM551.979 413H555.479V409.5H562.479V413H565.979V423.5H562.479V427H555.479V423.5H551.979V413ZM555.479 423.5H562.479V413H555.479V423.5ZM569.479 409.5H572.979V420H576.479V416.5H579.979V409.5H583.479V427H579.979V420H576.479V423.5H572.979V427H569.479V409.5ZM572.979 402.5H579.979V406H572.979V402.5ZM586.979 413H590.479V409.5H600.979V413H590.479V423.5H600.979V427H590.479V423.5H586.979V413ZM604.479 409.5H621.979V413H614.979V427H611.479V413H604.479V409.5ZM625.466 409.5H635.966V413H639.466V416.5H635.966V420H639.466V423.5H635.966V427H625.466V409.5ZM628.966 413V416.5H635.966V413.07L628.966 413ZM628.966 423.5H635.966V420H628.966V423.5ZM646.466 409.5H653.466V413H656.966V427H646.466V423.5H642.966V420H646.466V416.5H653.466V413H646.466V409.5ZM646.466 423.5H653.466V420H646.466V423.5ZM660.466 409.5H663.966V413H667.466V416.5H670.966V413H674.466V409.5H677.966V427H674.466V416.5H670.966V420H667.466V416.5H663.966V427H660.466V409.5ZM681.452 409.5H684.952V420H688.452V416.5H691.952V409.5H695.452V427H691.952V420H688.452V423.5H684.952V427H681.452V409.5ZM698.952 423.5H702.452V427H698.952V423.5Z" fill="#E50202"/>
</svg>
