<svg width="639" height="501" viewBox="0 0 639 501" fill="none" xmlns="http://www.w3.org/2000/svg">
<rect x="111" y="83" width="379" height="207" stroke="#E50202" stroke-width="2"/>
<rect x="1" y="83" width="66" height="100" stroke="#E50202" stroke-width="2"/>
<rect x="35" y="225" width="66" height="65" stroke="#E50202" stroke-width="2"/>
<rect x="511" y="113" width="34" height="177" stroke="#E50202" stroke-width="2"/>
<rect x="155" y="323" width="78" height="177" stroke="#E50202" stroke-width="2"/>
<rect x="48" y="363" width="78" height="97" stroke="#E50202" stroke-width="2"/>
<rect x="375" y="323" width="78" height="177" stroke="#E50202" stroke-width="2"/>
<rect x="492" y="323" width="146" height="114" stroke="#E50202" stroke-width="2"/>
<rect x="227" y="31" width="146" height="50" stroke="#E50202" stroke-width="2"/>
<g clip-path="url(#clip0_598_20)">
<rect x="193" width="67" height="50" fill="#0E7303"/>
<path d="M201.01 20.5H203.51V25.5H206.01V23H208.51V20.5H211.01V23H208.51V25.5H206.01V28H208.51V30.5H211.01V33H208.51V30.5H206.01V28H203.51V33H201.01V20.5ZM216.01 20.5H221.01V23H223.51V33H216.01V30.5H213.51V28H216.01V25.5H221.01V23H216.01V20.5ZM216.01 30.5H221.01V28H216.01V30.5ZM226.01 20.5H228.51V23H231.01V25.5H233.51V23H236.01V20.5H238.51V33H236.01V25.5H233.51V28H231.01V25.5H228.51V33H226.01V20.5ZM241 20.5H243.5V18H246V15.5H248.5V30.5H253.5V33H241V30.5H246V20.5H243.5V23H241V20.5Z" fill="white"/>
</g>
<rect x="194" y="1" width="65" height="48" stroke="#E50101" stroke-width="2"/>
<g clip-path="url(#clip1_598_20)">
<rect x="479" y="302" width="67" height="50" fill="#232323"/>
<path d="M487.01 322.5H489.51V327.5H492.01V325H494.51V322.5H497.01V325H494.51V327.5H492.01V330H494.51V332.5H497.01V335H494.51V332.5H492.01V330H489.51V335H487.01V322.5ZM502.01 322.5H507.01V325H509.51V335H502.01V332.5H499.51V330H502.01V327.5H507.01V325H502.01V322.5ZM502.01 332.5H507.01V330H502.01V332.5ZM512.01 322.5H514.51V325H517.01V327.5H519.51V325H522.01V322.5H524.51V335H522.01V327.5H519.51V330H517.01V327.5H514.51V335H512.01V322.5ZM527 325H529.5V322.5H532V320H534.5V317.5H539.5V335H537V330H527V325ZM537 320H534.5V322.5H532V325H529.5V327.5H537V320Z" fill="white"/>
</g>
<rect x="480" y="303" width="65" height="48" stroke="#E50101" stroke-width="2"/>
<g clip-path="url(#clip2_598_20)">
<rect x="119" y="302" width="67" height="50" fill="#232323"/>
<path d="M127.01 322.5H129.51V327.5H132.01V325H134.51V322.5H137.01V325H134.51V327.5H132.01V330H134.51V332.5H137.01V335H134.51V332.5H132.01V330H129.51V335H127.01V322.5ZM142.01 322.5H147.01V325H149.51V335H142.01V332.5H139.51V330H142.01V327.5H147.01V325H142.01V322.5ZM142.01 332.5H147.01V330H142.01V332.5ZM152.01 322.5H154.51V325H157.01V327.5H159.51V325H162.01V322.5H164.51V335H162.01V327.5H159.51V330H157.01V327.5H154.51V335H152.01V322.5ZM172 325H177V320H169.5V322.5H167V320H169.5V317.5H177V320H179.5V325H177V327.5H179.5V332.5H177V335H169.5V332.5H167V330H169.5V332.5H177V327.5H172V325Z" fill="white"/>
</g>
<rect x="120" y="303" width="65" height="48" stroke="#E50101" stroke-width="2"/>
<g clip-path="url(#clip3_598_20)">
<rect x="533" y="87" width="67" height="50" fill="#232323"/>
<path d="M541.01 107.5H543.51V112.5H546.01V110H548.51V107.5H551.01V110H548.51V112.5H546.01V115H548.51V117.5H551.01V120H548.51V117.5H546.01V115H543.51V120H541.01V107.5ZM556.01 107.5H561.01V110H563.51V120H556.01V117.5H553.51V115H556.01V112.5H561.01V110H556.01V107.5ZM556.01 117.5H561.01V115H556.01V117.5ZM566.01 107.5H568.51V110H571.01V112.5H573.51V110H576.01V107.5H578.51V120H576.01V112.5H573.51V115H571.01V112.5H568.51V120H566.01V107.5ZM581 112.5H583.5V110H591V105H583.5V107.5H581V105H583.5V102.5H591V105H593.5V110H591V112.5H583.5V117.5H593.5V120H581V112.5Z" fill="white"/>
</g>
<rect x="534" y="88" width="65" height="48" stroke="#E50101" stroke-width="2"/>
<defs>
<clipPath id="clip0_598_20">
<rect x="193" width="67" height="50" fill="white"/>
</clipPath>
<clipPath id="clip1_598_20">
<rect x="479" y="302" width="67" height="50" fill="white"/>
</clipPath>
<clipPath id="clip2_598_20">
<rect x="119" y="302" width="67" height="50" fill="white"/>
</clipPath>
<clipPath id="clip3_598_20">
<rect x="533" y="87" width="67" height="50" fill="white"/>
</clipPath>
</defs>
</svg>
