<svg width="937" height="498" viewBox="0 0 937 498" fill="none" xmlns="http://www.w3.org/2000/svg">
<rect x="10" y="10" width="917" height="478" fill="black" stroke="#E50202" stroke-width="20"/>
<path d="M250.396 81.5H262.896V99H260.396V84H252.896V99H250.396V81.5ZM265.387 81.5H277.887V84H267.887V89H275.387V91.5H267.887V96.5H277.887V99H265.387V81.5ZM280.377 81.5H290.377V84H292.877V89H290.377V91.5H282.877V99H280.377V81.5ZM282.877 84V89H290.377V84.05L282.877 84ZM295.367 81.5H307.867V84H297.867V89H305.367V91.5H297.867V96.5H307.867V99H295.367V81.5ZM310.357 81.5H312.857V89H317.857V86.5H320.357V81.5H322.857V86.5H320.357V89H317.857V91.5H320.357V94H322.857V99H320.357V94H317.857V91.5H312.857V99H310.357V81.5ZM335.348 84H330.348V86.5H327.848V99H325.348V86.5H327.848V84H330.348V81.5H337.848V99H335.348V84ZM340.338 81.5H342.838V89H345.338V84H347.838V81.5H352.838V84H355.338V96.5H352.838V99H347.838V96.5H345.338V91.5H342.838V99H340.338V81.5ZM347.838 96.5H352.838V84H347.838V96.5ZM357.818 81.5H360.318V91.5H367.818V81.5H370.318V99H367.818V94H360.318V91.5H357.818V81.5ZM372.809 84H375.309V81.5H382.809V84H385.309V99H382.809V91.5H375.309V99H372.809V84ZM375.309 89H382.809V84H375.309V89ZM387.799 81.5H390.299V91.5H392.799V89H395.299V86.5H397.799V81.5H400.299V99H397.799V89H395.299V91.5H392.799V94H390.299V99H387.799V81.5ZM390.299 74H392.799V76.5H395.299V74H397.799V76.5H395.299V79H392.799V76.5H390.299V74ZM402.789 81.5H415.289V84H410.289V99H407.789V84H402.789V81.5ZM417.779 81.5H430.279V84H420.279V89H427.779V91.5H420.279V96.5H430.279V99H417.779V81.5ZM442.77 84H435.27V96.5H442.77V94H445.27V96.5H442.77V99H435.27V96.5H432.77V84H435.27V81.5H442.77V84H445.27V86.5H442.77V84ZM447.76 81.5H450.26V89H457.76V91.5H460.26V96.5H457.76V99H447.76V81.5ZM450.26 96.5H457.76V91.5H450.26V96.5ZM477.74 81.5H480.24V86.5H482.74V89H485.24V86.5H487.74V81.5H490.24V99H487.74V89H485.24V94H482.74V89H480.24V99H477.74V81.5ZM492.73 81.5H505.23V84H495.23V89H502.73V91.5H495.23V96.5H505.23V99H492.73V81.5ZM507.721 81.5H510.221V89H512.721V81.5H515.221V89H517.721V81.5H520.221V89H517.721V91.5H520.221V99H517.721V91.5H515.221V99H512.721V91.5H510.221V99H507.721V91.5H510.221V89H507.721V81.5ZM522.711 96.5H525.211V84H527.711V81.5H532.711V96.5H535.211V101.5H532.711V99H525.211V101.5H522.711V96.5ZM530.211 84H527.711V96.5H530.211V84ZM537.701 81.5H540.201V89H547.701V81.5H550.201V96.5H547.701V99H540.201V96.5H537.701V94H540.201V96.5H547.701V91.5H540.201V89H537.701V81.5ZM567.682 81.5H570.182V89H575.182V86.5H577.682V81.5H580.182V86.5H577.682V89H575.182V91.5H577.682V94H580.182V99H577.682V94H575.182V91.5H570.182V99H567.682V81.5ZM582.672 84H585.172V81.5H592.672V84H595.172V99H592.672V91.5H585.172V99H582.672V84ZM585.172 89H592.672V84H585.172V89ZM597.662 81.5H600.162V86.5H602.662V89H605.162V86.5H607.662V81.5H610.162V99H607.662V89H605.162V94H602.662V89H600.162V99H597.662V81.5ZM612.652 81.5H625.152V84H615.152V89H622.652V91.5H615.152V96.5H625.152V99H612.652V81.5ZM627.643 81.5H637.643V84H640.143V89H637.643V91.5H630.143V99H627.643V81.5ZM630.143 84V89H637.643V84.05L630.143 84ZM642.633 84H645.133V81.5H652.633V84H655.133V99H652.633V91.5H645.133V99H642.633V84ZM645.133 89H652.633V84H645.133V89ZM657.623 81.5H660.123V86.5H662.623V89H665.123V86.5H667.623V81.5H670.123V99H667.623V89H665.123V94H662.623V89H660.123V99H657.623V81.5ZM672.613 81.5H675.113V91.5H677.613V89H680.113V86.5H682.613V81.5H685.113V99H682.613V89H680.113V91.5H677.613V94H675.113V99H672.613V81.5ZM344.098 131.5H346.598V141.5H349.098V139H351.598V136.5H354.098V131.5H356.598V149H354.098V139H351.598V141.5H349.098V144H346.598V149H344.098V131.5ZM374.078 131.5H376.578V141.5H379.078V139H381.578V136.5H384.078V131.5H386.578V149H384.078V139H381.578V141.5H379.078V144H376.578V149H374.078V131.5ZM389.068 131.5H391.568V146.5H394.068V131.5H396.568V146.5H399.068V131.5H401.568V146.5H404.068V151.5H401.568V149H389.068V131.5ZM406.549 131.5H409.049V141.5H411.549V139H414.049V136.5H416.549V131.5H419.049V149H416.549V139H414.049V141.5H411.549V144H409.049V149H406.549V131.5ZM421.539 131.5H434.039V134H429.039V149H426.539V134H421.539V131.5ZM436.529 131.5H449.029V134H439.029V139H446.529V141.5H439.029V146.5H449.029V149H436.529V131.5ZM466.51 134H469.01V131.5H476.51V134H479.01V149H476.51V141.5H469.01V149H466.51V134ZM469.01 139H476.51V134H469.01V139ZM481.5 131.5H484V139H491.5V131.5H494V149H491.5V141.5H484V149H481.5V131.5ZM496.49 134H498.99V131.5H506.49V134H508.99V146.5H506.49V149H498.99V146.5H496.49V134ZM498.99 146.5H506.49V134H498.99V146.5ZM511.48 131.5H513.98V136.5H516.48V139H518.98V136.5H521.48V131.5H523.98V149H521.48V139H518.98V144H516.48V139H513.98V149H511.48V131.5ZM526.471 134H528.971V131.5H536.471V134H538.971V149H536.471V141.5H528.971V149H526.471V134ZM528.971 139H536.471V134H528.971V139ZM551.461 134H546.461V136.5H543.961V149H541.461V136.5H543.961V134H546.461V131.5H553.961V149H551.461V134ZM556.451 131.5H558.951V141.5H561.451V139H563.951V136.5H566.451V131.5H568.951V149H566.451V139H563.951V141.5H561.451V144H558.951V149H556.451V131.5ZM571.441 131.5H573.941V139H576.441V134H578.941V131.5H583.941V134H586.441V146.5H583.941V149H578.941V146.5H576.441V141.5H573.941V149H571.441V131.5ZM578.941 146.5H583.941V134H578.941V146.5ZM588.922 146.5H591.422V149H588.922V146.5ZM352.813 231.5H355.313V239H362.813V231.5H365.313V249H362.813V241.5H355.313V249H352.813V231.5ZM367.804 234H370.304V231.5H377.804V234H380.304V249H377.804V241.5H370.304V249H367.804V234ZM370.304 239H377.804V234H370.304V239ZM382.794 231.5H385.294V239H387.794V231.5H390.294V239H392.794V231.5H395.294V239H392.794V241.5H395.294V249H392.794V241.5H390.294V249H387.794V241.5H385.294V249H382.794V241.5H385.294V239H382.794V231.5ZM397.784 231.5H400.284V236.5H402.784V239H405.284V236.5H407.784V231.5H410.284V249H407.784V239H405.284V244H402.784V239H400.284V249H397.784V231.5ZM412.774 231.5H415.274V241.5H417.774V239H420.274V236.5H422.774V231.5H425.274V249H422.774V239H420.274V241.5H417.774V244H415.274V249H412.774V231.5ZM427.765 231.5H440.265V234H435.265V249H432.765V234H427.765V231.5ZM442.755 231.5H455.255V234H445.255V239H452.755V241.5H445.255V246.5H455.255V249H442.755V231.5ZM472.735 231.5H475.235V239H482.735V231.5H485.235V249H482.735V241.5H475.235V249H472.735V231.5ZM487.726 234H490.226V231.5H497.726V234H500.226V249H497.726V241.5H490.226V249H487.726V234ZM490.226 239H497.726V234H490.226V239ZM517.706 231.5H527.706V234H530.206V239H527.706V241.5H520.206V249H517.706V231.5ZM520.206 234V239H527.706V234.05L520.206 234ZM532.696 234H535.196V231.5H542.696V234H545.196V246.5H542.696V249H535.196V246.5H532.696V234ZM535.196 246.5H542.696V234H535.196V246.5ZM547.687 231.5H550.187V239H552.687V231.5H555.187V239H557.687V231.5H560.187V239H557.687V241.5H560.187V249H557.687V241.5H555.187V249H552.687V241.5H550.187V249H547.687V241.5H550.187V239H547.687V231.5ZM562.677 231.5H565.177V239H572.677V231.5H575.177V246.5H572.677V249H565.177V246.5H562.677V244H565.177V246.5H572.677V241.5H565.177V239H562.677V231.5ZM577.667 244H582.667V251.5H580.167V254H577.667V251.5H580.167V246.5H577.667V244ZM331.598 281.5H334.098V289H339.098V286.5H341.598V281.5H344.098V286.5H341.598V289H339.098V291.5H341.598V294H344.098V299H341.598V294H339.098V291.5H334.098V299H331.598V281.5ZM346.588 284H349.088V281.5H356.588V284H359.088V296.5H356.588V299H349.088V296.5H346.588V284ZM349.088 296.5H356.588V284H349.088V296.5ZM361.578 281.5H374.078V284H364.078V299H361.578V281.5ZM376.568 296.5H379.068V284H381.568V281.5H386.568V296.5H389.068V301.5H386.568V299H379.068V301.5H376.568V296.5ZM384.068 284H381.568V296.5H384.068V284ZM391.559 284H394.059V281.5H401.559V284H404.059V299H401.559V291.5H394.059V299H391.559V284ZM394.059 289H401.559V284H394.059V289ZM421.539 284H424.039V281.5H431.539V284H434.039V296.5H431.539V299H424.039V296.5H421.539V284ZM424.039 296.5H431.539V284H424.039V296.5ZM436.529 281.5H439.029V289H446.529V281.5H449.029V299H446.529V291.5H439.029V299H436.529V281.5ZM451.52 284H454.02V281.5H461.52V284H464.02V299H461.52V291.5H454.02V299H451.52V284ZM454.02 289H461.52V284H454.02V289ZM481.5 281.5H494V299H491.5V284H484V299H481.5V281.5ZM496.49 284H498.99V281.5H506.49V284H508.99V296.5H506.49V299H498.99V296.5H496.49V284ZM498.99 296.5H506.49V284H498.99V296.5ZM511.48 284H513.98V281.5H523.98V299H521.48V291.5H518.98V294H516.48V296.5H513.98V299H511.48V296.5H513.98V294H516.48V291.5H513.98V289H511.48V284ZM513.98 289H521.48V284H513.98V289ZM526.471 281.5H536.471V284H538.971V289H536.471V291.5H538.971V296.5H536.471V299H526.471V281.5ZM528.971 289H536.471V284H528.971V289ZM528.971 296.5H536.471V291.5H528.971V296.5ZM541.461 281.5H543.961V291.5H546.461V289H548.961V286.5H551.461V281.5H553.961V299H551.461V289H548.961V291.5H546.461V294H543.961V299H541.461V281.5ZM556.451 281.5H568.951V284H563.951V299H561.451V284H556.451V281.5ZM581.441 284H573.941V296.5H581.441V294H583.941V296.5H581.441V299H573.941V296.5H571.441V284H573.941V281.5H581.441V284H583.941V286.5H581.441V284ZM586.432 284H588.932V281.5H598.932V299H596.432V291.5H593.932V294H591.432V296.5H588.932V299H586.432V296.5H588.932V294H591.432V291.5H588.932V289H586.432V284ZM588.932 289H596.432V284H588.932V289ZM601.422 296.5H603.922V299H601.422V296.5ZM139.239 389H144.239V384H146.739V389H151.739V391.5H146.739V396.5H144.239V391.5H139.239V389ZM154.229 391.5H156.729V389H164.229V384H156.729V386.5H154.229V384H156.729V381.5H164.229V384H166.729V389H164.229V391.5H156.729V396.5H166.729V399H154.229V391.5ZM169.22 381.5H181.72V384H171.72V386.5H179.22V389H181.72V396.5H179.22V399H171.72V396.5H169.22V394H171.72V396.5H179.22V389H171.72V391.5H169.22V381.5ZM184.21 396.5H186.71V394H189.21V391.5H191.71V389H194.21V386.5H196.71V384H199.21V386.5H196.71V389H194.21V391.5H191.71V394H189.21V396.5H186.71V399H184.21V396.5ZM184.21 384H189.21V389H184.21V384ZM194.21 394H199.21V399H194.21V394ZM216.681 381.5H219.181V389H224.181V386.5H226.681V381.5H229.181V386.5H226.681V389H224.181V391.5H226.681V394H229.181V399H226.681V394H224.181V391.5H219.181V399H216.681V381.5ZM256.661 384H249.161V396.5H256.661V394H259.161V396.5H256.661V399H249.161V396.5H246.661V384H249.161V381.5H256.661V384H259.161V386.5H256.661V384ZM261.651 381.5H264.151V391.5H266.651V389H269.151V386.5H271.651V381.5H274.151V399H271.651V389H269.151V391.5H266.651V394H264.151V399H261.651V381.5ZM276.642 381.5H289.142V384H279.142V399H276.642V381.5ZM291.632 381.5H294.132V389H301.632V381.5H304.132V399H301.632V391.5H294.132V399H291.632V381.5ZM306.622 384H309.122V381.5H316.622V384H319.122V399H316.622V391.5H309.122V399H306.622V384ZM309.122 389H316.622V384H309.122V389ZM331.612 384H326.612V386.5H324.112V399H321.612V386.5H324.112V384H326.612V381.5H334.112V399H331.612V384ZM336.603 381.5H339.103V389H346.603V381.5H349.103V396.5H346.603V399H339.103V396.5H336.603V394H339.103V396.5H346.603V391.5H339.103V389H336.603V381.5ZM371.583 389H376.583V384H369.083V386.5H366.583V384H369.083V381.5H376.583V384H379.083V389H376.583V391.5H379.083V396.5H376.583V399H369.083V396.5H366.583V394H369.083V396.5H376.583V391.5H371.583V389ZM381.573 384H384.073V381.5H391.573V384H394.073V399H391.573V391.5H384.073V399H381.573V384ZM384.073 389H391.573V384H384.073V389ZM411.554 381.5H414.054V389H419.054V386.5H421.554V381.5H424.054V386.5H421.554V389H419.054V391.5H421.554V394H424.054V399H421.554V394H419.054V391.5H414.054V399H411.554V381.5ZM426.544 384H429.044V381.5H436.544V384H439.044V399H436.544V391.5H429.044V399H426.544V384ZM429.044 389H436.544V384H429.044V389ZM441.534 381.5H444.034V389H446.534V381.5H449.034V389H451.534V381.5H454.034V389H451.534V391.5H454.034V399H451.534V391.5H449.034V399H446.534V391.5H444.034V399H441.534V391.5H444.034V389H441.534V381.5ZM456.524 396.5H459.024V384H461.524V381.5H466.524V396.5H469.024V401.5H466.524V399H459.024V401.5H456.524V396.5ZM464.024 384H461.524V396.5H464.024V384ZM471.515 381.5H474.015V389H481.515V381.5H484.015V396.5H481.515V399H474.015V396.5H471.515V394H474.015V396.5H481.515V391.5H474.015V389H471.515V381.5ZM486.505 381.5H489.005V389H491.505V384H494.005V381.5H499.005V384H501.505V396.5H499.005V399H494.005V396.5H491.505V391.5H489.005V399H486.505V381.5ZM494.005 396.5H499.005V384H494.005V396.5ZM518.976 381.5H521.476V389H528.976V381.5H531.476V399H528.976V391.5H521.476V399H518.976V381.5ZM533.966 384H536.466V381.5H543.966V384H546.466V399H543.966V391.5H536.466V399H533.966V384ZM536.466 389H543.966V384H536.466V389ZM548.956 381.5H551.456V391.5H553.956V389H556.456V386.5H558.956V381.5H561.456V399H558.956V389H556.456V391.5H553.956V394H551.456V399H548.956V381.5ZM551.456 374H553.956V376.5H556.456V374H558.956V376.5H556.456V379H553.956V376.5H551.456V374ZM563.946 396.5H566.446V384H568.946V381.5H573.946V396.5H576.446V401.5H573.946V399H566.446V401.5H563.946V396.5ZM571.446 384H568.946V396.5H571.446V384ZM578.937 381.5H591.437V384H581.437V389H588.937V391.5H581.437V396.5H591.437V399H578.937V381.5ZM593.927 381.5H596.427V389H603.927V381.5H606.427V399H603.927V391.5H596.427V399H593.927V381.5ZM608.917 381.5H611.417V389H618.917V381.5H621.417V399H618.917V391.5H611.417V399H608.917V381.5ZM623.907 381.5H626.407V389H633.907V381.5H636.407V396.5H633.907V399H626.407V396.5H623.907V394H626.407V396.5H633.907V391.5H626.407V389H623.907V381.5ZM638.897 381.5H641.397V389H643.897V384H646.397V381.5H651.397V384H653.897V396.5H651.397V399H646.397V396.5H643.897V391.5H641.397V399H638.897V381.5ZM646.397 396.5H651.397V384H646.397V396.5ZM671.368 384H673.868V381.5H681.368V384H683.868V399H681.368V391.5H673.868V399H671.368V384ZM673.868 389H681.368V384H673.868V389ZM686.358 381.5H688.858V389H696.358V381.5H698.858V399H696.358V391.5H688.858V399H686.358V381.5ZM701.349 384H703.849V381.5H711.349V384H713.849V396.5H711.349V399H703.849V396.5H701.349V384ZM703.849 396.5H711.349V384H703.849V396.5ZM716.339 381.5H718.839V386.5H721.339V389H723.839V386.5H726.339V381.5H728.839V399H726.339V389H723.839V394H721.339V389H718.839V399H716.339V381.5ZM731.329 384H733.829V381.5H741.329V384H743.829V399H741.329V391.5H733.829V399H731.329V384ZM733.829 389H741.329V384H733.829V389ZM756.319 384H751.319V386.5H748.819V399H746.319V386.5H748.819V384H751.319V381.5H758.819V399H756.319V384ZM761.31 381.5H763.81V391.5H766.31V389H768.81V386.5H771.31V381.5H773.81V399H771.31V389H768.81V391.5H766.31V394H763.81V399H761.31V381.5ZM776.3 381.5H778.8V389H781.3V384H783.8V381.5H788.8V384H791.3V396.5H788.8V399H783.8V396.5H781.3V391.5H778.8V399H776.3V381.5ZM783.8 396.5H788.8V384H783.8V396.5ZM793.78 396.5H796.28V399H793.78V396.5Z" fill="#E50202"/>
</svg>
