<svg width="937" height="498" viewBox="0 0 937 498" fill="none" xmlns="http://www.w3.org/2000/svg">
<rect x="10" y="10" width="917" height="478" fill="black" stroke="#E50202" stroke-width="20"/>
<path d="M349.838 97H342.338V109.5H349.838V107H352.338V109.5H349.838V112H342.338V109.5H339.838V97H342.338V94.5H349.838V97H352.338V99.5H349.838V97ZM354.828 94.5H364.828V97H367.328V102H364.828V104.5H357.328V112H354.828V94.5ZM357.328 97V102H364.828V97.05L357.328 97ZM369.818 97H372.318V94.5H379.818V97H382.318V112H379.818V104.5H372.318V112H369.818V97ZM372.318 102H379.818V97H372.318V102ZM384.809 94.5H394.809V97H397.309V102H394.809V104.5H397.309V109.5H394.809V112H384.809V94.5ZM387.309 102H394.809V97H387.309V102ZM387.309 109.5H394.809V104.5H387.309V109.5ZM399.799 94.5H402.299V102H409.799V94.5H412.299V112H409.799V104.5H402.299V112H399.799V94.5ZM414.789 94.5H417.289V104.5H419.789V102H422.289V99.5H424.789V94.5H427.289V112H424.789V102H422.289V104.5H419.789V107H417.289V112H414.789V94.5ZM429.779 94.5H442.279V97H437.279V112H434.779V97H429.779V94.5ZM444.77 94.5H457.27V97H447.27V102H454.77V104.5H447.27V109.5H457.27V112H444.77V94.5ZM474.75 109.5H477.25V97H479.75V94.5H484.75V109.5H487.25V114.5H484.75V112H477.25V114.5H474.75V109.5ZM482.25 97H479.75V109.5H482.25V97ZM489.74 94.5H499.74V97H502.24V102H499.74V104.5H502.24V109.5H499.74V112H489.74V94.5ZM492.24 102H499.74V97H492.24V102ZM492.24 109.5H499.74V104.5H492.24V109.5ZM504.73 97H507.23V94.5H514.73V97H517.23V112H514.73V104.5H507.23V112H504.73V97ZM507.23 102H514.73V97H507.23V102ZM544.711 97H539.711V99.5H537.211V112H534.711V99.5H537.211V97H539.711V94.5H547.211V112H544.711V97ZM549.701 94.5H552.201V104.5H554.701V102H557.201V99.5H559.701V94.5H562.201V112H559.701V102H557.201V104.5H554.701V107H552.201V112H549.701V94.5ZM564.691 94.5H567.191V109.5H574.691V94.5H577.191V109.5H579.691V114.5H577.191V112H564.691V94.5ZM582.172 97H584.672V94.5H592.172V97H594.672V112H592.172V104.5H584.672V112H582.172V97ZM584.672 102H592.172V97H584.672V102ZM197.406 144.5H199.906V154.5H202.406V152H204.906V149.5H207.406V144.5H209.906V162H207.406V152H204.906V154.5H202.406V157H199.906V162H197.406V144.5ZM227.387 144.5H237.387V147H239.887V152H237.387V154.5H239.887V159.5H237.387V162H227.387V144.5ZM229.887 152H237.387V147H229.887V152ZM229.887 159.5H237.387V154.5H229.887V159.5ZM242.377 144.5H244.877V152H252.377V154.5H254.877V159.5H252.377V162H242.377V144.5ZM257.377 144.5H259.877V162H257.377V144.5ZM252.377 154.5H244.877V159.5H252.377V154.5ZM262.396 144.5H274.896V147H264.896V152H272.396V154.5H274.896V159.5H272.396V162H262.396V144.5ZM264.896 159.5H272.396V154.5H264.896V159.5ZM277.387 144.5H289.887V147H279.887V152H287.387V154.5H279.887V159.5H289.887V162H277.387V144.5ZM292.377 144.5H302.377V147H304.877V152H302.377V154.5H294.877V162H292.377V144.5ZM294.877 147V152H302.377V147.05L294.877 147ZM307.367 144.5H309.867V154.5H312.367V152H314.867V149.5H317.367V144.5H319.867V162H317.367V152H314.867V154.5H312.367V157H309.867V162H307.367V144.5ZM322.357 144.5H334.857V147H329.857V162H327.357V147H322.357V144.5ZM337.348 144.5H349.848V147H339.848V152H347.348V154.5H339.848V159.5H349.848V162H337.348V144.5ZM367.328 144.5H379.828V147H374.828V162H372.328V147H367.328V144.5ZM382.318 147H384.818V144.5H392.318V147H394.818V159.5H392.318V162H384.818V159.5H382.318V147ZM384.818 159.5H392.318V147H384.818V159.5ZM397.309 157H402.309V164.5H399.809V167H397.309V164.5H399.809V159.5H397.309V157ZM419.818 144.5H432.318V147H422.318V162H419.818V144.5ZM434.809 159.5H437.309V147H439.809V144.5H444.809V159.5H447.309V164.5H444.809V162H437.309V164.5H434.809V159.5ZM442.309 147H439.809V159.5H442.309V147ZM449.799 144.5H462.299V147H452.299V152H459.799V154.5H452.299V159.5H462.299V162H449.799V144.5ZM479.779 144.5H482.279V154.5H484.779V152H487.279V149.5H489.779V144.5H492.279V162H489.779V152H487.279V154.5H484.779V157H482.279V162H479.779V144.5ZM504.77 147H497.27V159.5H504.77V157H507.27V159.5H504.77V162H497.27V159.5H494.77V147H497.27V144.5H504.77V147H507.27V149.5H504.77V147ZM509.76 144.5H512.26V152H517.26V149.5H519.76V144.5H522.26V149.5H519.76V152H517.26V154.5H519.76V157H522.26V162H519.76V157H517.26V154.5H512.26V162H509.76V144.5ZM524.75 147H527.25V144.5H534.75V147H537.25V162H534.75V154.5H527.25V162H524.75V147ZM527.25 152H534.75V147H527.25V152ZM539.74 144.5H542.24V152H544.74V144.5H547.24V152H549.74V144.5H552.24V152H549.74V154.5H552.24V162H549.74V154.5H547.24V162H544.74V154.5H542.24V162H539.74V154.5H542.24V152H539.74V144.5ZM554.73 144.5H567.23V147H557.23V152H564.73V154.5H557.23V159.5H567.23V162H554.73V144.5ZM569.721 144.5H572.221V152H579.721V144.5H582.221V162H579.721V154.5H572.221V162H569.721V144.5ZM584.711 144.5H587.211V154.5H589.711V152H592.211V149.5H594.711V144.5H597.211V162H594.711V152H592.211V154.5H589.711V157H587.211V162H584.711V144.5ZM599.701 144.5H612.201V147H602.201V152H609.701V154.5H602.201V159.5H612.201V162H599.701V144.5ZM639.682 147H632.182V159.5H639.682V157H642.182V159.5H639.682V162H632.182V159.5H629.682V147H632.182V144.5H639.682V147H642.182V149.5H639.682V147ZM644.672 144.5H647.172V154.5H649.672V152H652.172V149.5H654.672V144.5H657.172V162H654.672V152H652.172V154.5H649.672V157H647.172V162H644.672V144.5ZM669.662 147H664.662V149.5H662.162V162H659.662V149.5H662.162V147H664.662V144.5H672.162V162H669.662V147ZM674.652 144.5H677.152V152H684.652V154.5H687.152V159.5H684.652V162H674.652V144.5ZM677.152 159.5H684.652V154.5H677.152V159.5ZM689.643 144.5H692.143V152H699.643V144.5H702.143V162H699.643V154.5H692.143V162H689.643V144.5ZM704.633 144.5H717.133V147H707.133V152H714.633V154.5H707.133V159.5H717.133V162H704.633V144.5ZM719.623 144.5H732.123V147H722.123V152H729.623V154.5H722.123V159.5H732.123V162H719.623V144.5ZM734.613 159.5H737.113V162H734.613V159.5ZM293.622 244.5H306.122V247H301.122V262H298.622V247H293.622V244.5ZM308.612 244.5H321.112V247H311.112V252H318.612V254.5H311.112V259.5H321.112V262H308.612V244.5ZM333.603 247H326.103V259.5H333.603V257H336.103V259.5H333.603V262H326.103V259.5H323.603V247H326.103V244.5H333.603V247H336.103V249.5H333.603V247ZM338.593 244.5H351.093V247H346.093V262H343.593V247H338.593V244.5ZM378.573 247H371.073V259.5H378.573V257H381.073V259.5H378.573V262H371.073V259.5H368.573V247H371.073V244.5H378.573V247H381.073V249.5H378.573V247ZM383.563 247H386.063V244.5H393.563V247H396.063V259.5H393.563V262H386.063V259.5H383.563V247ZM386.063 259.5H393.563V247H386.063V259.5ZM408.554 247H401.054V259.5H408.554V257H411.054V259.5H408.554V262H401.054V259.5H398.554V247H401.054V244.5H408.554V247H411.054V249.5H408.554V247ZM413.544 244.5H426.044V247H421.044V262H418.544V247H413.544V244.5ZM428.534 247H431.034V244.5H438.534V247H441.034V259.5H438.534V262H431.034V259.5H428.534V247ZM431.034 259.5H438.534V247H431.034V259.5ZM443.524 244.5H446.024V254.5H448.524V252H451.024V249.5H453.524V244.5H456.024V262H453.524V252H451.024V254.5H448.524V257H446.024V262H443.524V244.5ZM458.515 244.5H471.015V247H466.015V262H463.515V247H458.515V244.5ZM488.495 244.5H490.995V254.5H493.495V252H495.995V249.5H498.495V244.5H500.995V262H498.495V252H495.995V254.5H493.495V257H490.995V262H488.495V244.5ZM508.485 252H513.485V247H505.985V249.5H503.485V247H505.985V244.5H513.485V247H515.985V252H513.485V254.5H515.985V259.5H513.485V262H505.985V259.5H503.485V257H505.985V259.5H513.485V254.5H508.485V252ZM538.466 252H543.466V247H535.966V249.5H533.466V247H535.966V244.5H543.466V247H545.966V252H543.466V254.5H545.966V259.5H543.466V262H535.966V259.5H533.466V257H535.966V259.5H543.466V254.5H538.466V252ZM563.446 244.5H565.946V259.5H568.446V244.5H570.946V259.5H573.446V244.5H575.946V262H563.446V244.5ZM578.437 247H580.937V244.5H588.437V247H590.937V262H588.437V254.5H580.937V262H578.437V247ZM580.937 252H588.437V247H580.937V252ZM593.427 244.5H605.927V247H595.927V262H593.427V244.5ZM608.417 247H610.917V244.5H618.417V247H620.917V259.5H618.417V262H610.917V259.5H608.417V247ZM610.917 259.5H618.417V247H610.917V259.5ZM623.407 244.5H633.407V247H635.907V252H633.407V254.5H635.907V259.5H633.407V262H623.407V244.5ZM625.907 252H633.407V247H625.907V252ZM625.907 259.5H633.407V254.5H625.907V259.5ZM638.397 259.5H640.897V262H638.397V259.5ZM371.054 347H363.554V359.5H371.054V357H373.554V359.5H371.054V362H363.554V359.5H361.054V347H363.554V344.5H371.054V347H373.554V349.5H371.054V347ZM391.034 344.5H393.534V352H398.534V349.5H401.034V344.5H403.534V349.5H401.034V352H398.534V354.5H401.034V357H403.534V362H401.034V357H398.534V354.5H393.534V362H391.034V344.5ZM406.024 347H408.524V344.5H416.024V347H418.524V362H416.024V354.5H408.524V362H406.024V347ZM408.524 352H416.024V347H408.524V352ZM421.015 344.5H423.515V352H426.015V344.5H428.515V352H431.015V344.5H433.515V352H431.015V354.5H433.515V362H431.015V354.5H428.515V362H426.015V354.5H423.515V362H421.015V354.5H423.515V352H421.015V344.5ZM436.005 359.5H438.505V347H441.005V344.5H446.005V359.5H448.505V364.5H446.005V362H438.505V364.5H436.005V359.5ZM443.505 347H441.005V359.5H443.505V347ZM450.995 344.5H453.495V352H460.995V354.5H463.495V359.5H460.995V362H450.995V344.5ZM465.995 344.5H468.495V362H465.995V344.5ZM460.995 354.5H453.495V359.5H460.995V354.5ZM471.015 344.5H473.515V349.5H476.015V352H478.515V349.5H481.015V344.5H483.515V362H481.015V352H478.515V357H476.015V352H473.515V362H471.015V344.5ZM500.995 344.5H503.495V359.5H505.995V344.5H508.495V359.5H510.995V344.5H513.495V362H500.995V344.5ZM515.985 347H518.485V344.5H525.985V347H528.485V362H525.985V354.5H518.485V362H515.985V347ZM518.485 352H525.985V347H518.485V352ZM530.976 344.5H543.476V347H533.476V362H530.976V344.5ZM545.966 347H548.466V344.5H555.966V347H558.466V359.5H555.966V362H548.466V359.5H545.966V347ZM548.466 359.5H555.966V347H548.466V359.5ZM560.956 344.5H563.456V349.5H565.956V352H568.456V349.5H570.956V344.5H573.456V362H570.956V352H568.456V357H565.956V352H563.456V362H560.956V344.5ZM194.931 397H189.931V399.5H187.431V412H184.931V399.5H187.431V397H189.931V394.5H197.431V412H194.931V397ZM199.921 394.5H202.421V404.5H204.921V402H207.421V399.5H209.921V394.5H212.421V412H209.921V402H207.421V404.5H204.921V407H202.421V412H199.921V394.5ZM214.911 394.5H217.411V409.5H224.911V394.5H227.411V409.5H229.911V414.5H227.411V412H214.911V394.5ZM232.392 397H234.892V394.5H242.392V397H244.892V412H242.392V404.5H234.892V412H232.392V397ZM234.892 402H242.392V397H234.892V402ZM272.372 397H264.872V409.5H272.372V407H274.872V409.5H272.372V412H264.872V409.5H262.372V397H264.872V394.5H272.372V397H274.872V399.5H272.372V397ZM277.362 394.5H289.862V397H284.862V412H282.362V397H277.362V394.5ZM292.353 397H294.853V394.5H302.353V397H304.853V412H302.353V404.5H294.853V412H292.353V397ZM294.853 402H302.353V397H294.853V402ZM307.343 394.5H309.843V402H317.343V394.5H319.843V412H317.343V404.5H309.843V412H307.343V394.5ZM322.333 397H324.833V394.5H332.333V397H334.833V409.5H332.333V412H324.833V409.5H322.333V397ZM324.833 409.5H332.333V397H324.833V409.5ZM337.323 394.5H347.323V397H349.823V402H347.323V404.5H349.823V409.5H347.323V412H337.323V394.5ZM339.823 402H347.323V397H339.823V402ZM339.823 409.5H347.323V404.5H339.823V409.5ZM352.313 397H354.813V394.5H364.813V412H362.313V404.5H359.813V407H357.313V409.5H354.813V412H352.313V409.5H354.813V407H357.313V404.5H354.813V402H352.313V397ZM354.813 402H362.313V397H354.813V402ZM367.304 394.5H379.804V397H374.804V412H372.304V397H367.304V394.5ZM392.294 397H384.794V409.5H392.294V407H394.794V409.5H392.294V412H384.794V409.5H382.294V397H384.794V394.5H392.294V397H394.794V399.5H392.294V397ZM397.284 397H399.784V394.5H409.784V412H407.284V404.5H404.784V407H402.284V409.5H399.784V412H397.284V409.5H399.784V407H402.284V404.5H399.784V402H397.284V397ZM399.784 402H407.284V397H399.784V402ZM427.265 394.5H437.265V397H439.765V402H437.265V404.5H439.765V409.5H437.265V412H427.265V394.5ZM429.765 402H437.265V397H429.765V402ZM429.765 409.5H437.265V404.5H429.765V409.5ZM452.255 397H444.755V409.5H452.255V407H454.755V409.5H452.255V412H444.755V409.5H442.255V397H444.755V394.5H452.255V397H454.755V399.5H452.255V397ZM457.245 394.5H469.745V397H459.745V402H467.245V404.5H459.745V409.5H469.745V412H457.245V394.5ZM459.745 389.5H462.245V392H459.745V389.5ZM464.745 389.5H467.245V392H464.745V389.5ZM487.226 394.5H489.726V399.5H492.226V402H494.726V399.5H497.226V394.5H499.726V412H497.226V402H494.726V407H492.226V402H489.726V412H487.226V394.5ZM502.216 394.5H514.716V397H504.716V402H512.216V404.5H504.716V409.5H514.716V412H502.216V394.5ZM517.206 394.5H519.706V402H527.206V394.5H529.706V412H527.206V404.5H519.706V412H517.206V394.5ZM532.196 394.5H544.696V397H534.696V402H542.196V404.5H534.696V409.5H544.696V412H532.196V394.5ZM547.187 394.5H559.687V397H549.687V402H557.187V404.5H549.687V409.5H559.687V412H547.187V394.5ZM577.167 394.5H579.667V402H587.167V394.5H589.667V409.5H587.167V412H579.667V409.5H577.167V407H579.667V409.5H587.167V404.5H579.667V402H577.167V394.5ZM597.157 402H602.157V397H594.657V399.5H592.157V397H594.657V394.5H602.157V397H604.657V402H602.157V404.5H604.657V409.5H602.157V412H594.657V409.5H592.157V407H594.657V409.5H602.157V404.5H597.157V402ZM607.147 394.5H609.647V402H617.147V394.5H619.647V412H617.147V404.5H609.647V412H607.147V394.5ZM622.138 397H624.638V394.5H632.138V397H634.638V412H632.138V404.5H624.638V412H622.138V397ZM624.638 402H632.138V397H624.638V402ZM637.128 394.5H647.128V397H649.628V402H647.128V404.5H649.628V409.5H647.128V412H637.128V394.5ZM639.628 402H647.128V397H639.628V402ZM639.628 409.5H647.128V404.5H639.628V409.5ZM652.118 397H654.618V394.5H662.118V397H664.618V412H662.118V404.5H654.618V412H652.118V397ZM654.618 402H662.118V397H654.618V402ZM667.108 394.5H679.608V397H669.608V402H677.108V404.5H669.608V409.5H679.608V412H667.108V394.5ZM682.099 394.5H684.599V399.5H687.099V402H689.599V399.5H692.099V394.5H694.599V412H692.099V402H689.599V407H687.099V402H684.599V412H682.099V394.5ZM697.089 394.5H699.589V402H707.089V404.5H709.589V409.5H707.089V412H697.089V394.5ZM712.089 394.5H714.589V412H712.089V394.5ZM707.089 404.5H699.589V409.5H707.089V404.5ZM717.108 394.5H719.608V399.5H722.108V402H724.608V399.5H727.108V394.5H729.608V412H727.108V402H724.608V407H722.108V402H719.608V412H717.108V394.5ZM732.099 394.5H734.599V404.5H737.099V402H739.599V399.5H742.099V394.5H744.599V412H742.099V402H739.599V404.5H737.099V407H734.599V412H732.099V394.5ZM747.089 409.5H749.589V412H747.089V409.5Z" fill="#E50202"/>
</svg>
